<svg fill="none" version="1.1" viewBox="0 0 24 24" xmlns="http://www.w3.org/2000/svg">
 <path d="m19.355 15.304c2.2479-5.5174-1.8112-11.554-7.7691-11.554h-0.3214c-4.4556 0-8.0676 3.612-8.0676 8.0676 0 4.9609 4.0215 8.9824 8.9823 8.9824h7.8203c0.31826 0 0.60186-0.2009 0.70749-0.5011s0.01028-0.6344-0.23787-0.8337l-1.9715-1.5833c-0.0862-0.0692-0.11669-0.1868-0.07498-0.2892zm-7.7691-10.054c4.8926 0 8.2259 4.9574 6.3799 9.4883l-0.93234 2.2885c-0.292 0.7167-0.07854 1.5401 0.52488 2.0247l0.30945 0.2485h-5.6886c-4.1324 0-7.4823-3.35-7.4823-7.4824 0-3.6272 2.9404-6.5676 6.5676-6.5676z" clip-rule="evenodd" fill="#000" fill-rule="evenodd"/>
</svg>
