<svg xmlns="http://www.w3.org/2000/svg" width="95.098" height="95.098"><path d="M47.549 0C21.288 0 0 21.288 0 47.549s21.288 47.549 47.549 47.549c26.262 0 47.549-21.288 47.549-47.549S73.811 0 47.549 0zm0 85.098C26.844 85.098 10 68.253 10 47.549S26.844 10 47.549 10s37.549 16.845 37.549 37.549-16.844 37.549-37.549 37.549z"/><path d="M77.665 29.911a1.092 1.092 0 00-1.231-.503l-33.783 9.213a1.123 1.123 0 00-.492.288L17.596 63.865a1.095 1.095 0 001.068 1.824l33.783-9.214a1.06 1.06 0 00.493-.288L77.502 31.23c.346-.351.413-.893.163-1.319zm-50.96 29.845l16.46-16.725 6.179 10.551-22.639 6.174z"/></svg>