<svg xmlns="http://www.w3.org/2000/svg" viewBox="0 0 492.309 492.309"><path d="M490.786 73.868a9.1 9.1 0 00-.779-1.058c-2.74-3.288-7.279-4.375-11.183-2.837L6.344 249.734a9.845 9.845 0 001.625 18.865l129.234 25.113 27.687 121.51.016.07.015.067c.263 1.157.772 2.193 1.394 3.151.067.103.073.226.145.329.102.144.272.192.38.329.847 1.085 1.858 2.019 3.078 2.668.067.036.117.093.185.127a9.769 9.769 0 002.906.942c.51.077 1.01.115 1.51.115h.01c.021 0 .042-.01.063-.01a9.839 9.839 0 002.648-.399c.287-.083.552-.233.834-.343a9.591 9.591 0 001.725-.849c.123-.078.263-.105.383-.189l135.461-95.173 76.626 14.452c.615.115 1.231.173 1.837.173a9.849 9.849 0 009.279-6.587L491.7 82.532c.163-.461.298-.923.404-1.404v-.01c.154-.74.221-1.49.202-2.231a9.947 9.947 0 00-1.52-5.019zM45.623 255.859L386.93 126.003 143.498 274.878l-97.875-19.019zm132.99 130.951l-22.072-96.825 244.793-149.704-167.923 154.26a9.82 9.82 0 00-1.786 2.224c-.008.014-.023.022-.031.036l-52.981 90.009zm27.452-7.836l38.98-66.228 43.584 8.221-82.564 58.007zm181.539-59.375L261.2 295.753l198.933-182.74-72.529 206.586z"/></svg>