<svg viewBox="0 0 512 512" xmlns="http://www.w3.org/2000/svg"><path d="M305.87 451.92a209.097 209.097 0 01-7.296 2.336c2.456-.736 4.88-1.528 7.296-2.336zM317.99 447.47c-2.608 1.04-5.216 2.064-7.872 3.008a231.662 231.662 0 007.872-3.008zM293.9 455.58zM215.19 463.33c-2.832-.2-5.656-.416-8.448-.72 2.8.304 5.624.52 8.448.72zM177.26 457.44c-2.4-.584-4.784-1.208-7.16-1.864 2.376.664 4.76 1.288 7.16 1.864zM201.94 462a236.382 236.382 0 01-7.576-1.08c2.504.408 5.04.744 7.576 1.08zM232 464zM189.42 460.03zM142.61 446.13zM153.87 450.48zM244.72 463.64zM257.26 462.61c-2.8.304-5.624.52-8.448.72 2.824-.2 5.648-.416 8.448-.72zM281.85 458.58zM269.64 460.91c-2.512.408-5.04.752-7.576 1.08 2.528-.328 5.064-.664 7.576-1.08zM332.03 441.37a235.234 235.234 0 01-10.64 4.76 226.642 226.642 0 0010.64-4.76zM165.42 454.26zM321.39 446.13c-1.12.472-2.264.888-3.392 1.336 1.12-.448 2.264-.864 3.392-1.336zM332.35 441.22c-.104.048-.216.096-.32.144.104-.048.216-.088.32-.144zM182.15 458.58zM194.36 460.91a256.257 256.257 0 01-4.952-.88c1.656.304 3.296.616 4.952.88zM219.28 463.64c-1.368-.072-2.728-.216-4.088-.312 1.368.096 2.72.24 4.088.312zM206.74 462.61c-1.608-.176-3.2-.4-4.8-.608 1.6.208 3.192.432 4.8.608zM131.93 441.35c-.088-.04-.184-.08-.272-.12.088.04.184.08.272.12zM248.81 463.33c-1.368.096-2.72.24-4.088.312 1.368-.072 2.72-.216 4.088-.312zM298.58 454.26zM310.13 450.48c-1.408.504-2.832.96-4.248 1.44 1.416-.48 2.84-.936 4.248-1.44zM146.01 447.47c-1.128-.448-2.272-.872-3.392-1.336 1.12.464 2.264.88 3.392 1.336zM158.13 451.92c-1.416-.48-2.848-.936-4.248-1.44 1.4.504 2.824.96 4.248 1.44zM262.06 462c-1.6.208-3.192.44-4.8.608 1.608-.176 3.2-.4 4.8-.608zM286.74 457.44c-1.624.392-3.256.768-4.896 1.128 1.64-.352 3.272-.728 4.896-1.128zM274.58 460.03c-1.648.304-3.288.616-4.952.88 1.664-.264 3.304-.576 4.952-.88zM170.1 455.58c-1.56-.432-3.128-.864-4.68-1.328 1.552.464 3.112.896 4.68 1.328z" fill="#f9ede0"/><g transform="translate(1.78 1.03) scale(1.0974)"><circle cx="232" cy="232" r="232" fill="#efece8"/><path d="M285.1 247.95c25.848-17.208 42.896-46.576 42.896-79.952 0-53.016-42.984-96-96-96s-96 42.984-96 96c0 33.376 17.048 62.744 42.896 79.952 0 0 .008.008.016.008-.008 0-.008-.008-.008-.008-61.872 18.648-110.05 68.864-125.56 132.04l.008.008a237.163 237.163 0 007.832 8.944c.648.712 1.328 1.392 1.992 2.088a239.937 239.937 0 006.296 6.464c.888.872 1.792 1.712 2.696 2.568a233.567 233.567 0 006.04 5.568c1.016.896 2.048 1.784 3.072 2.664 2.008 1.72 4.04 3.408 6.112 5.056 1.088.872 2.184 1.728 3.28 2.584a214.91 214.91 0 006.376 4.72c1.112.792 2.208 1.6 3.336 2.376 2.272 1.568 4.584 3.072 6.912 4.56 1.048.664 2.072 1.352 3.128 2.008a237.722 237.722 0 008.184 4.792c.728.408 1.44.848 2.176 1.248a231.937 231.937 0 0010.872 5.592c.088.04.184.08.272.12 3.512 1.68 7.08 3.272 10.688 4.776 1.12.472 2.264.888 3.392 1.336 2.608 1.04 5.216 2.064 7.872 3.008 1.408.504 2.832.96 4.248 1.44 2.416.816 4.848 1.608 7.296 2.336 1.552.464 3.112.896 4.68 1.328 2.368.656 4.752 1.28 7.16 1.864a219.555 219.555 0 0012.152 2.584c1.648.304 3.288.616 4.952.88 2.512.408 5.04.752 7.576 1.08 1.6.208 3.192.44 4.8.608 2.8.304 5.624.52 8.448.72 1.368.096 2.72.24 4.088.312 4.216.24 8.448.376 12.72.376s8.504-.136 12.72-.36c1.368-.072 2.728-.216 4.088-.312 2.832-.2 5.656-.416 8.448-.72 1.608-.176 3.2-.4 4.8-.608 2.536-.328 5.064-.672 7.576-1.08 1.656-.272 3.304-.576 4.952-.88a215.477 215.477 0 0012.152-2.584c2.4-.584 4.784-1.208 7.16-1.864 1.56-.432 3.128-.864 4.68-1.328 2.456-.736 4.88-1.528 7.296-2.336 1.416-.48 2.848-.936 4.248-1.44a245.374 245.374 0 007.872-3.008c1.128-.448 2.272-.872 3.392-1.336a226.642 226.642 0 0010.64-4.76c.104-.048.216-.096.32-.144 3.68-1.768 7.304-3.64 10.872-5.592.736-.4 1.448-.84 2.176-1.248a237.722 237.722 0 008.184-4.792c1.056-.648 2.088-1.336 3.128-2.008 2.328-1.488 4.64-3 6.912-4.56 1.12-.776 2.224-1.576 3.336-2.376a247.51 247.51 0 006.376-4.72 202.128 202.128 0 003.28-2.584 230.055 230.055 0 006.112-5.056c1.032-.88 2.064-1.768 3.072-2.664a233.567 233.567 0 006.04-5.568c.896-.856 1.808-1.704 2.696-2.568a228.37 228.37 0 006.296-6.464c.656-.704 1.336-1.384 1.992-2.088 2.68-2.92 5.304-5.896 7.832-8.944l.008-.008c-15.504-63.184-63.68-113.4-125.55-132.05z" fill="#c6c3bd"/></g></svg>